<?xml version="1.0" encoding="UTF-8" standalone="no"?>
<!DOCTYPE svg PUBLIC "-//W3C//DTD SVG 1.1//EN"
 "http://www.w3.org/Graphics/SVG/1.1/DTD/svg11.dtd">
<!-- Generated by graphviz version 2.47.0 (20210316.0004)
 -->
<!-- Title: dependencies Pages: 1 -->
<svg width="1882pt" height="284pt"
 viewBox="0.00 0.00 1882.00 284.00" xmlns="http://www.w3.org/2000/svg" xmlns:xlink="http://www.w3.org/1999/xlink">
<g id="graph0" class="graph" transform="scale(1 1) rotate(0) translate(4 280)">
<title>dependencies</title>
<polygon fill="white" stroke="transparent" points="-4,4 -4,-280 1878,-280 1878,4 -4,4"/>
<text text-anchor="start" x="916.01" y="-42.4" font-family="Times-12" font-weight="bold" font-size="14.00">Legend</text>
<polygon fill="#ffffb3" stroke="transparent" points="703,-10 703,-30 723,-30 723,-10 703,-10"/>
<text text-anchor="start" x="726.63" y="-15.4" font-family="Times-12" font-size="14.00"> &#160;Declarations</text>
<polygon fill="#8dd3c7" stroke="transparent" points="816,-10 816,-30 836,-30 836,-10 816,-10"/>
<text text-anchor="start" x="839.73" y="-15.4" font-family="Times-12" font-size="14.00"> &#160;Module</text>
<polygon fill="#80b1d3" stroke="transparent" points="902,-10 902,-30 922,-30 922,-10 902,-10"/>
<text text-anchor="start" x="925.78" y="-15.4" font-family="Times-12" font-size="14.00"> &#160;Bootstrap</text>
<polygon fill="#fdb462" stroke="transparent" points="999,-10 999,-30 1019,-30 1019,-10 999,-10"/>
<text text-anchor="start" x="1022.67" y="-15.4" font-family="Times-12" font-size="14.00"> &#160;Providers</text>
<polygon fill="#fb8072" stroke="transparent" points="1095,-10 1095,-30 1115,-30 1115,-10 1095,-10"/>
<text text-anchor="start" x="1118.73" y="-15.4" font-family="Times-12" font-size="14.00"> &#160;Exports</text>
<g id="clust1" class="cluster">
<title>cluster_AppModule</title>
<polygon fill="none" stroke="black" stroke-dasharray="1,5" points="8,-70 8,-268 1866,-268 1866,-70 8,-70"/>
</g>
<g id="clust16" class="cluster">
<title>cluster_AppModule_providers</title>
<polygon fill="none" stroke="black" points="1696,-78 1696,-130 1858,-130 1858,-78 1696,-78"/>
</g>
<g id="clust13" class="cluster">
<title>cluster_AppModule_imports</title>
<polygon fill="none" stroke="black" points="1544,-78 1544,-130 1688,-130 1688,-78 1544,-78"/>
</g>
<g id="clust15" class="cluster">
<title>cluster_AppModule_bootstrap</title>
<polygon fill="none" stroke="black" points="918,-208 918,-260 1042,-260 1042,-208 918,-208"/>
</g>
<g id="clust2" class="cluster">
<title>cluster_AppModule_declarations</title>
<polygon fill="none" stroke="black" points="16,-78 16,-130 1536,-130 1536,-78 16,-78"/>
</g>
<!-- AboutComponent -->
<g id="node1" class="node">
<title>AboutComponent</title>
<polygon fill="#ffffb3" stroke="black" points="1528.33,-122 1411.67,-122 1411.67,-86 1528.33,-86 1528.33,-122"/>
<text text-anchor="middle" x="1470" y="-99.8" font-family="Times,serif" font-size="14.00">AboutComponent</text>
</g>
<!-- AppModule -->
<g id="node11" class="node">
<title>AppModule</title>
<polygon fill="#8dd3c7" stroke="black" points="1021.66,-187 1018.66,-191 997.66,-191 994.66,-187 938.34,-187 938.34,-151 1021.66,-151 1021.66,-187"/>
<text text-anchor="middle" x="980" y="-164.8" font-family="Times,serif" font-size="14.00">AppModule</text>
</g>
<!-- AboutComponent&#45;&gt;AppModule -->
<g id="edge1" class="edge">
<title>AboutComponent&#45;&gt;AppModule</title>
<path fill="none" stroke="black" d="M1470,-122.11C1470,-141.34 1470,-169 1470,-169 1470,-169 1031.78,-169 1031.78,-169"/>
<polygon fill="black" stroke="black" points="1031.78,-165.5 1021.78,-169 1031.78,-172.5 1031.78,-165.5"/>
</g>
<!-- AppComponent -->
<g id="node2" class="node">
<title>AppComponent</title>
<polygon fill="#ffffb3" stroke="black" points="1393.94,-122 1288.06,-122 1288.06,-86 1393.94,-86 1393.94,-122"/>
<text text-anchor="middle" x="1341" y="-99.8" font-family="Times,serif" font-size="14.00">AppComponent</text>
</g>
<!-- AppComponent&#45;&gt;AppModule -->
<g id="edge2" class="edge">
<title>AppComponent&#45;&gt;AppModule</title>
<path fill="none" stroke="black" d="M1341,-122.02C1341,-139.37 1341,-163 1341,-163 1341,-163 1031.76,-163 1031.76,-163"/>
<polygon fill="black" stroke="black" points="1031.76,-159.5 1021.76,-163 1031.76,-166.5 1031.76,-159.5"/>
</g>
<!-- FooterComponent -->
<g id="node3" class="node">
<title>FooterComponent</title>
<polygon fill="#ffffb3" stroke="black" points="1269.88,-122 1152.12,-122 1152.12,-86 1269.88,-86 1269.88,-122"/>
<text text-anchor="middle" x="1211" y="-99.8" font-family="Times,serif" font-size="14.00">FooterComponent</text>
</g>
<!-- FooterComponent&#45;&gt;AppModule -->
<g id="edge3" class="edge">
<title>FooterComponent&#45;&gt;AppModule</title>
<path fill="none" stroke="black" d="M1211,-122.24C1211,-137.57 1211,-157 1211,-157 1211,-157 1031.83,-157 1031.83,-157"/>
<polygon fill="black" stroke="black" points="1031.83,-153.5 1021.83,-157 1031.83,-160.5 1031.83,-153.5"/>
</g>
<!-- LandingpageComponent -->
<g id="node4" class="node">
<title>LandingpageComponent</title>
<polygon fill="#ffffb3" stroke="black" points="1134.42,-122 979.58,-122 979.58,-86 1134.42,-86 1134.42,-122"/>
<text text-anchor="middle" x="1057" y="-99.8" font-family="Times,serif" font-size="14.00">LandingpageComponent</text>
</g>
<!-- LandingpageComponent&#45;&gt;AppModule -->
<g id="edge4" class="edge">
<title>LandingpageComponent&#45;&gt;AppModule</title>
<path fill="none" stroke="black" d="M1000.81,-122.11C1000.81,-122.11 1000.81,-140.99 1000.81,-140.99"/>
<polygon fill="black" stroke="black" points="997.31,-140.99 1000.81,-150.99 1004.31,-140.99 997.31,-140.99"/>
</g>
<!-- LoginComponent -->
<g id="node5" class="node">
<title>LoginComponent</title>
<polygon fill="#ffffb3" stroke="black" points="961.28,-122 846.72,-122 846.72,-86 961.28,-86 961.28,-122"/>
<text text-anchor="middle" x="904" y="-99.8" font-family="Times,serif" font-size="14.00">LoginComponent</text>
</g>
<!-- LoginComponent&#45;&gt;AppModule -->
<g id="edge5" class="edge">
<title>LoginComponent&#45;&gt;AppModule</title>
<path fill="none" stroke="black" d="M949.78,-122.11C949.78,-122.11 949.78,-140.99 949.78,-140.99"/>
<polygon fill="black" stroke="black" points="946.28,-140.99 949.78,-150.99 953.28,-140.99 946.28,-140.99"/>
</g>
<!-- ProfileComponent -->
<g id="node6" class="node">
<title>ProfileComponent</title>
<polygon fill="#ffffb3" stroke="black" points="828.93,-122 709.07,-122 709.07,-86 828.93,-86 828.93,-122"/>
<text text-anchor="middle" x="769" y="-99.8" font-family="Times,serif" font-size="14.00">ProfileComponent</text>
</g>
<!-- ProfileComponent&#45;&gt;AppModule -->
<g id="edge6" class="edge">
<title>ProfileComponent&#45;&gt;AppModule</title>
<path fill="none" stroke="black" d="M769,-122.24C769,-137.57 769,-157 769,-157 769,-157 928.31,-157 928.31,-157"/>
<polygon fill="black" stroke="black" points="928.31,-160.5 938.31,-157 928.31,-153.5 928.31,-160.5"/>
</g>
<!-- SignupComponent -->
<g id="node7" class="node">
<title>SignupComponent</title>
<polygon fill="#ffffb3" stroke="black" points="691.51,-122 570.49,-122 570.49,-86 691.51,-86 691.51,-122"/>
<text text-anchor="middle" x="631" y="-99.8" font-family="Times,serif" font-size="14.00">SignupComponent</text>
</g>
<!-- SignupComponent&#45;&gt;AppModule -->
<g id="edge7" class="edge">
<title>SignupComponent&#45;&gt;AppModule</title>
<path fill="none" stroke="black" d="M631,-122.02C631,-139.37 631,-163 631,-163 631,-163 928.25,-163 928.25,-163"/>
<polygon fill="black" stroke="black" points="928.25,-166.5 938.25,-163 928.25,-159.5 928.25,-166.5"/>
</g>
<!-- StudentProjectDetailComponent -->
<g id="node8" class="node">
<title>StudentProjectDetailComponent</title>
<polygon fill="#ffffb3" stroke="black" points="552.97,-122 355.03,-122 355.03,-86 552.97,-86 552.97,-122"/>
<text text-anchor="middle" x="454" y="-99.8" font-family="Times,serif" font-size="14.00">StudentProjectDetailComponent</text>
</g>
<!-- StudentProjectDetailComponent&#45;&gt;AppModule -->
<g id="edge8" class="edge">
<title>StudentProjectDetailComponent&#45;&gt;AppModule</title>
<path fill="none" stroke="black" d="M454,-122.11C454,-141.34 454,-169 454,-169 454,-169 928.29,-169 928.29,-169"/>
<polygon fill="black" stroke="black" points="928.29,-172.5 938.29,-169 928.29,-165.5 928.29,-172.5"/>
</g>
<!-- StudentProjectsComponent -->
<g id="node9" class="node">
<title>StudentProjectsComponent</title>
<polygon fill="#ffffb3" stroke="black" points="336.71,-122 167.29,-122 167.29,-86 336.71,-86 336.71,-122"/>
<text text-anchor="middle" x="252" y="-99.8" font-family="Times,serif" font-size="14.00">StudentProjectsComponent</text>
</g>
<!-- StudentProjectsComponent&#45;&gt;AppModule -->
<g id="edge9" class="edge">
<title>StudentProjectsComponent&#45;&gt;AppModule</title>
<path fill="none" stroke="black" d="M252,-122.28C252,-143.32 252,-175 252,-175 252,-175 928.24,-175 928.24,-175"/>
<polygon fill="black" stroke="black" points="928.24,-178.5 938.24,-175 928.24,-171.5 928.24,-178.5"/>
</g>
<!-- ToolbarComponent -->
<g id="node10" class="node">
<title>ToolbarComponent</title>
<polygon fill="#ffffb3" stroke="black" points="149.65,-122 24.35,-122 24.35,-86 149.65,-86 149.65,-122"/>
<text text-anchor="middle" x="87" y="-99.8" font-family="Times,serif" font-size="14.00">ToolbarComponent</text>
</g>
<!-- ToolbarComponent&#45;&gt;AppModule -->
<g id="edge10" class="edge">
<title>ToolbarComponent&#45;&gt;AppModule</title>
<path fill="none" stroke="black" d="M87,-122.25C87,-145.02 87,-181 87,-181 87,-181 928.13,-181 928.13,-181"/>
<polygon fill="black" stroke="black" points="928.13,-184.5 938.13,-181 928.13,-177.5 928.13,-184.5"/>
</g>
<!-- AppComponent  -->
<g id="node13" class="node">
<title>AppComponent </title>
<polygon fill="#80b1d3" stroke="black" points="1034.44,-252 925.56,-252 925.56,-216 1034.44,-216 1034.44,-252"/>
<text text-anchor="middle" x="980" y="-229.8" font-family="Times,serif" font-size="14.00">AppComponent </text>
</g>
<!-- AppModule&#45;&gt;AppComponent  -->
<g id="edge12" class="edge">
<title>AppModule&#45;&gt;AppComponent </title>
<path fill="none" stroke="black" stroke-dasharray="1,5" d="M980,-187.11C980,-187.11 980,-205.99 980,-205.99"/>
<polygon fill="black" stroke="black" points="976.5,-205.99 980,-215.99 983.5,-205.99 976.5,-205.99"/>
</g>
<!-- AppRoutingModule -->
<g id="node12" class="node">
<title>AppRoutingModule</title>
<polygon fill="#8dd3c7" stroke="black" points="1680.27,-122 1677.27,-126 1656.27,-126 1653.27,-122 1551.73,-122 1551.73,-86 1680.27,-86 1680.27,-122"/>
<text text-anchor="middle" x="1616" y="-99.8" font-family="Times,serif" font-size="14.00">AppRoutingModule</text>
</g>
<!-- AppRoutingModule&#45;&gt;AppModule -->
<g id="edge11" class="edge">
<title>AppRoutingModule&#45;&gt;AppModule</title>
<path fill="none" stroke="black" d="M1616,-122.28C1616,-143.32 1616,-175 1616,-175 1616,-175 1031.73,-175 1031.73,-175"/>
<polygon fill="black" stroke="black" points="1031.73,-171.5 1021.73,-175 1031.73,-178.5 1031.73,-171.5"/>
</g>
<!-- AuthInterceptor -->
<g id="node14" class="node">
<title>AuthInterceptor</title>
<ellipse fill="#fdb462" stroke="black" cx="1777" cy="-104" rx="72.91" ry="18"/>
<text text-anchor="middle" x="1777" y="-99.8" font-family="Times,serif" font-size="14.00">AuthInterceptor</text>
</g>
<!-- AuthInterceptor&#45;&gt;AppModule -->
<g id="edge13" class="edge">
<title>AuthInterceptor&#45;&gt;AppModule</title>
<path fill="none" stroke="black" d="M1777,-122.25C1777,-145.02 1777,-181 1777,-181 1777,-181 1031.73,-181 1031.73,-181"/>
<polygon fill="black" stroke="black" points="1031.73,-177.5 1021.73,-181 1031.73,-184.5 1031.73,-177.5"/>
</g>
</g>
</svg>
