<?xml version="1.0" encoding="UTF-8" standalone="no"?>
<!DOCTYPE svg PUBLIC "-//W3C//DTD SVG 1.1//EN"
 "http://www.w3.org/Graphics/SVG/1.1/DTD/svg11.dtd">
<!-- Generated by graphviz version 2.47.0 (20210316.0004)
 -->
<!-- Title: dependencies Pages: 1 -->
<svg width="1882pt" height="284pt"
 viewBox="0.00 0.00 1882.00 284.00" xmlns="http://www.w3.org/2000/svg" xmlns:xlink="http://www.w3.org/1999/xlink">
<g id="graph0" class="graph" transform="scale(1 1) rotate(0) translate(4 280)">
<title>dependencies</title>
<polygon fill="white" stroke="transparent" points="-4,4 -4,-280 1878,-280 1878,4 -4,4"/>
<text text-anchor="start" x="916.01" y="-42.4" font-family="Times-12" font-weight="bold" font-size="14.00">Legend</text>
<polygon fill="#ffffb3" stroke="transparent" points="703,-10 703,-30 723,-30 723,-10 703,-10"/>
<text text-anchor="start" x="726.63" y="-15.4" font-family="Times-12" font-size="14.00"> &#160;Declarations</text>
<polygon fill="#8dd3c7" stroke="transparent" points="816,-10 816,-30 836,-30 836,-10 816,-10"/>
<text text-anchor="start" x="839.73" y="-15.4" font-family="Times-12" font-size="14.00"> &#160;Module</text>
<polygon fill="#80b1d3" stroke="transparent" points="902,-10 902,-30 922,-30 922,-10 902,-10"/>
<text text-anchor="start" x="925.78" y="-15.4" font-family="Times-12" font-size="14.00"> &#160;Bootstrap</text>
<polygon fill="#fdb462" stroke="transparent" points="999,-10 999,-30 1019,-30 1019,-10 999,-10"/>
<text text-anchor="start" x="1022.67" y="-15.4" font-family="Times-12" font-size="14.00"> &#160;Providers</text>
<polygon fill="#fb8072" stroke="transparent" points="1095,-10 1095,-30 1115,-30 1115,-10 1095,-10"/>
<text text-anchor="start" x="1118.73" y="-15.4" font-family="Times-12" font-size="14.00"> &#160;Exports</text>
<g id="clust1" class="cluster">
<title>cluster_AppModule</title>
<polygon fill="none" stroke="black" stroke-dasharray="1,5" points="8,-70 8,-268 1866,-268 1866,-70 8,-70"/>
</g>
<g id="clust2" class="cluster">
<title>cluster_AppModule_declarations</title>
<polygon fill="none" stroke="black" points="338,-78 338,-130 1858,-130 1858,-78 338,-78"/>
</g>
<g id="clust13" class="cluster">
<title>cluster_AppModule_imports</title>
<polygon fill="none" stroke="black" points="186,-78 186,-130 330,-130 330,-78 186,-78"/>
</g>
<g id="clust15" class="cluster">
<title>cluster_AppModule_bootstrap</title>
<polygon fill="none" stroke="black" points="960,-208 960,-260 1084,-260 1084,-208 960,-208"/>
</g>
<g id="clust16" class="cluster">
<title>cluster_AppModule_providers</title>
<polygon fill="none" stroke="black" points="16,-78 16,-130 178,-130 178,-78 16,-78"/>
</g>
<!-- AboutComponent -->
<g id="node1" class="node">
<title>AboutComponent</title>
<polygon fill="#ffffb3" stroke="black" points="1850.33,-122 1733.67,-122 1733.67,-86 1850.33,-86 1850.33,-122"/>
<text text-anchor="middle" x="1792" y="-99.8" font-family="Times,serif" font-size="14.00">AboutComponent</text>
</g>
<!-- AppModule -->
<g id="node11" class="node">
<title>AppModule</title>
<polygon fill="#8dd3c7" stroke="black" points="1063.66,-187 1060.66,-191 1039.66,-191 1036.66,-187 980.34,-187 980.34,-151 1063.66,-151 1063.66,-187"/>
<text text-anchor="middle" x="1022" y="-164.8" font-family="Times,serif" font-size="14.00">AppModule</text>
</g>
<!-- AboutComponent&#45;&gt;AppModule -->
<g id="edge1" class="edge">
<title>AboutComponent&#45;&gt;AppModule</title>
<path fill="none" stroke="black" d="M1792,-122.25C1792,-145.02 1792,-181 1792,-181 1792,-181 1073.67,-181 1073.67,-181"/>
<polygon fill="black" stroke="black" points="1073.67,-177.5 1063.67,-181 1073.67,-184.5 1073.67,-177.5"/>
</g>
<!-- AppComponent -->
<g id="node2" class="node">
<title>AppComponent</title>
<polygon fill="#ffffb3" stroke="black" points="1715.94,-122 1610.06,-122 1610.06,-86 1715.94,-86 1715.94,-122"/>
<text text-anchor="middle" x="1663" y="-99.8" font-family="Times,serif" font-size="14.00">AppComponent</text>
</g>
<!-- AppComponent&#45;&gt;AppModule -->
<g id="edge2" class="edge">
<title>AppComponent&#45;&gt;AppModule</title>
<path fill="none" stroke="black" d="M1663,-122.28C1663,-143.32 1663,-175 1663,-175 1663,-175 1074.06,-175 1074.06,-175"/>
<polygon fill="black" stroke="black" points="1074.06,-171.5 1064.06,-175 1074.06,-178.5 1074.06,-171.5"/>
</g>
<!-- FooterComponent -->
<g id="node3" class="node">
<title>FooterComponent</title>
<polygon fill="#ffffb3" stroke="black" points="1591.88,-122 1474.12,-122 1474.12,-86 1591.88,-86 1591.88,-122"/>
<text text-anchor="middle" x="1533" y="-99.8" font-family="Times,serif" font-size="14.00">FooterComponent</text>
</g>
<!-- FooterComponent&#45;&gt;AppModule -->
<g id="edge3" class="edge">
<title>FooterComponent&#45;&gt;AppModule</title>
<path fill="none" stroke="black" d="M1533,-122.11C1533,-141.34 1533,-169 1533,-169 1533,-169 1073.82,-169 1073.82,-169"/>
<polygon fill="black" stroke="black" points="1073.82,-165.5 1063.82,-169 1073.82,-172.5 1073.82,-165.5"/>
</g>
<!-- LandingpageComponent -->
<g id="node4" class="node">
<title>LandingpageComponent</title>
<polygon fill="#ffffb3" stroke="black" points="1456.42,-122 1301.58,-122 1301.58,-86 1456.42,-86 1456.42,-122"/>
<text text-anchor="middle" x="1379" y="-99.8" font-family="Times,serif" font-size="14.00">LandingpageComponent</text>
</g>
<!-- LandingpageComponent&#45;&gt;AppModule -->
<g id="edge4" class="edge">
<title>LandingpageComponent&#45;&gt;AppModule</title>
<path fill="none" stroke="black" d="M1379,-122.02C1379,-139.37 1379,-163 1379,-163 1379,-163 1074,-163 1074,-163"/>
<polygon fill="black" stroke="black" points="1074,-159.5 1064,-163 1074,-166.5 1074,-159.5"/>
</g>
<!-- LoginComponent -->
<g id="node5" class="node">
<title>LoginComponent</title>
<polygon fill="#ffffb3" stroke="black" points="1283.28,-122 1168.72,-122 1168.72,-86 1283.28,-86 1283.28,-122"/>
<text text-anchor="middle" x="1226" y="-99.8" font-family="Times,serif" font-size="14.00">LoginComponent</text>
</g>
<!-- LoginComponent&#45;&gt;AppModule -->
<g id="edge5" class="edge">
<title>LoginComponent&#45;&gt;AppModule</title>
<path fill="none" stroke="black" d="M1226,-122.24C1226,-137.57 1226,-157 1226,-157 1226,-157 1073.77,-157 1073.77,-157"/>
<polygon fill="black" stroke="black" points="1073.77,-153.5 1063.77,-157 1073.77,-160.5 1073.77,-153.5"/>
</g>
<!-- ProfileComponent -->
<g id="node6" class="node">
<title>ProfileComponent</title>
<polygon fill="#ffffb3" stroke="black" points="1150.93,-122 1031.07,-122 1031.07,-86 1150.93,-86 1150.93,-122"/>
<text text-anchor="middle" x="1091" y="-99.8" font-family="Times,serif" font-size="14.00">ProfileComponent</text>
</g>
<!-- ProfileComponent&#45;&gt;AppModule -->
<g id="edge6" class="edge">
<title>ProfileComponent&#45;&gt;AppModule</title>
<path fill="none" stroke="black" d="M1047.56,-122.11C1047.56,-122.11 1047.56,-140.99 1047.56,-140.99"/>
<polygon fill="black" stroke="black" points="1044.06,-140.99 1047.56,-150.99 1051.06,-140.99 1044.06,-140.99"/>
</g>
<!-- SignupComponent -->
<g id="node7" class="node">
<title>SignupComponent</title>
<polygon fill="#ffffb3" stroke="black" points="1013.51,-122 892.49,-122 892.49,-86 1013.51,-86 1013.51,-122"/>
<text text-anchor="middle" x="953" y="-99.8" font-family="Times,serif" font-size="14.00">SignupComponent</text>
</g>
<!-- SignupComponent&#45;&gt;AppModule -->
<g id="edge7" class="edge">
<title>SignupComponent&#45;&gt;AppModule</title>
<path fill="none" stroke="black" d="M996.84,-122.11C996.84,-122.11 996.84,-140.99 996.84,-140.99"/>
<polygon fill="black" stroke="black" points="993.34,-140.99 996.84,-150.99 1000.34,-140.99 993.34,-140.99"/>
</g>
<!-- StudentProjectDetailComponent -->
<g id="node8" class="node">
<title>StudentProjectDetailComponent</title>
<polygon fill="#ffffb3" stroke="black" points="874.97,-122 677.03,-122 677.03,-86 874.97,-86 874.97,-122"/>
<text text-anchor="middle" x="776" y="-99.8" font-family="Times,serif" font-size="14.00">StudentProjectDetailComponent</text>
</g>
<!-- StudentProjectDetailComponent&#45;&gt;AppModule -->
<g id="edge8" class="edge">
<title>StudentProjectDetailComponent&#45;&gt;AppModule</title>
<path fill="none" stroke="black" d="M776,-122.24C776,-137.57 776,-157 776,-157 776,-157 970.27,-157 970.27,-157"/>
<polygon fill="black" stroke="black" points="970.27,-160.5 980.27,-157 970.27,-153.5 970.27,-160.5"/>
</g>
<!-- StudentProjectsComponent -->
<g id="node9" class="node">
<title>StudentProjectsComponent</title>
<polygon fill="#ffffb3" stroke="black" points="658.71,-122 489.29,-122 489.29,-86 658.71,-86 658.71,-122"/>
<text text-anchor="middle" x="574" y="-99.8" font-family="Times,serif" font-size="14.00">StudentProjectsComponent</text>
</g>
<!-- StudentProjectsComponent&#45;&gt;AppModule -->
<g id="edge9" class="edge">
<title>StudentProjectsComponent&#45;&gt;AppModule</title>
<path fill="none" stroke="black" d="M574,-122.02C574,-139.37 574,-163 574,-163 574,-163 970.26,-163 970.26,-163"/>
<polygon fill="black" stroke="black" points="970.26,-166.5 980.26,-163 970.26,-159.5 970.26,-166.5"/>
</g>
<!-- ToolbarComponent -->
<g id="node10" class="node">
<title>ToolbarComponent</title>
<polygon fill="#ffffb3" stroke="black" points="471.65,-122 346.35,-122 346.35,-86 471.65,-86 471.65,-122"/>
<text text-anchor="middle" x="409" y="-99.8" font-family="Times,serif" font-size="14.00">ToolbarComponent</text>
</g>
<!-- ToolbarComponent&#45;&gt;AppModule -->
<g id="edge10" class="edge">
<title>ToolbarComponent&#45;&gt;AppModule</title>
<path fill="none" stroke="black" d="M409,-122.11C409,-141.34 409,-169 409,-169 409,-169 969.87,-169 969.87,-169"/>
<polygon fill="black" stroke="black" points="969.87,-172.5 979.87,-169 969.87,-165.5 969.87,-172.5"/>
</g>
<!-- AppComponent  -->
<g id="node13" class="node">
<title>AppComponent </title>
<polygon fill="#80b1d3" stroke="black" points="1076.44,-252 967.56,-252 967.56,-216 1076.44,-216 1076.44,-252"/>
<text text-anchor="middle" x="1022" y="-229.8" font-family="Times,serif" font-size="14.00">AppComponent </text>
</g>
<!-- AppModule&#45;&gt;AppComponent  -->
<g id="edge12" class="edge">
<title>AppModule&#45;&gt;AppComponent </title>
<path fill="none" stroke="black" stroke-dasharray="1,5" d="M1022,-187.11C1022,-187.11 1022,-205.99 1022,-205.99"/>
<polygon fill="black" stroke="black" points="1018.5,-205.99 1022,-215.99 1025.5,-205.99 1018.5,-205.99"/>
</g>
<!-- AppRoutingModule -->
<g id="node12" class="node">
<title>AppRoutingModule</title>
<polygon fill="#8dd3c7" stroke="black" points="322.27,-122 319.27,-126 298.27,-126 295.27,-122 193.73,-122 193.73,-86 322.27,-86 322.27,-122"/>
<text text-anchor="middle" x="258" y="-99.8" font-family="Times,serif" font-size="14.00">AppRoutingModule</text>
</g>
<!-- AppRoutingModule&#45;&gt;AppModule -->
<g id="edge11" class="edge">
<title>AppRoutingModule&#45;&gt;AppModule</title>
<path fill="none" stroke="black" d="M258,-122.28C258,-143.32 258,-175 258,-175 258,-175 970.11,-175 970.11,-175"/>
<polygon fill="black" stroke="black" points="970.11,-178.5 980.11,-175 970.11,-171.5 970.11,-178.5"/>
</g>
<!-- AuthInterceptor -->
<g id="node14" class="node">
<title>AuthInterceptor</title>
<ellipse fill="#fdb462" stroke="black" cx="97" cy="-104" rx="72.91" ry="18"/>
<text text-anchor="middle" x="97" y="-99.8" font-family="Times,serif" font-size="14.00">AuthInterceptor</text>
</g>
<!-- AuthInterceptor&#45;&gt;AppModule -->
<g id="edge13" class="edge">
<title>AuthInterceptor&#45;&gt;AppModule</title>
<path fill="none" stroke="black" d="M97,-122.25C97,-145.02 97,-181 97,-181 97,-181 970.15,-181 970.15,-181"/>
<polygon fill="black" stroke="black" points="970.15,-184.5 980.15,-181 970.15,-177.5 970.15,-184.5"/>
</g>
</g>
</svg>
